<?xml version="1.0" encoding="UTF-8" standalone="no"?>
<svg
   xmlns:dc="http://purl.org/dc/elements/1.1/"
   xmlns:cc="http://creativecommons.org/ns#"
   xmlns:rdf="http://www.w3.org/1999/02/22-rdf-syntax-ns#"
   xmlns:svg="http://www.w3.org/2000/svg"
   xmlns="http://www.w3.org/2000/svg"
   xmlns:sodipodi="http://sodipodi.sourceforge.net/DTD/sodipodi-0.dtd"
   xmlns:inkscape="http://www.inkscape.org/namespaces/inkscape"
   version="1.1"
   x="0px"
   y="0px"
   viewBox="0 0 96.676384 69.828948"
   enable-background="new 0 0 100 33.541"
   xml:space="preserve"
   id="svg4999"
   inkscape:version="0.91 r13725"
   sodipodi:docname="andrewslogo.svg"
   width="96.676384"
   height="69.828949"><metadata
     id="metadata5007"><rdf:RDF><cc:Work
         rdf:about=""><dc:format>image/svg+xml</dc:format><dc:type
           rdf:resource="http://purl.org/dc/dcmitype/StillImage" /><dc:title></dc:title></cc:Work></rdf:RDF></metadata><defs
     id="defs5005" /><sodipodi:namedview
     pagecolor="#ffffff"
     bordercolor="#666666"
     borderopacity="1"
     objecttolerance="10"
     gridtolerance="10"
     guidetolerance="10"
     inkscape:pageopacity="0"
     inkscape:pageshadow="2"
     inkscape:window-width="1600"
     inkscape:window-height="837"
     id="namedview5003"
     showgrid="false"
     showborder="false"
     inkscape:zoom="6.16"
     inkscape:cx="50.648734"
     inkscape:cy="4.1025198"
     inkscape:window-x="-8"
     inkscape:window-y="-8"
     inkscape:window-maximized="1"
     inkscape:current-layer="svg4999"
     fit-margin-top="0"
     fit-margin-left="0"
     fit-margin-right="0"
     fit-margin-bottom="0" /><g
     id="g5610"
     style="fill:#ffffff"
     transform="translate(-5.0915172,54.342219)"><path
       sodipodi:nodetypes="ccscscscscssscssscccccccscccccsccscccccscccccccccscccccsccccccccccccscscccccccscccsccccccscccssccccscccccsccsccccccccscccccccccccccscccsccsccccscccsccccccsccccccccsccccccssccccccscsccccccc"
       inkscape:connector-curvature="0"
       id="path5011"
       d="m 90.428024,-34.53588 c -0.03406,-0.203327 -0.09805,-0.397365 -0.188877,-0.574889 -1.134297,-6.277339 -6.650965,-10.933221 -13.095507,-10.933221 -0.439682,0 -0.878332,0.02168 -1.314918,0.06502 -1.993019,-5.004738 -6.839843,-8.363249 -12.362703,-8.363249 -3.991199,0 -7.659344,1.740151 -10.148812,4.689942 -2.491531,-2.949791 -6.159677,-4.689942 -10.149843,-4.689942 -5.5177,0 -10.365556,3.356447 -12.359607,8.35912 -0.421104,-0.04129 -0.84324,-0.0609 -1.264344,-0.0609 -6.734567,0 -12.31729,5.027444 -13.192526,11.525656 -6.3557796,0.998058 -11.2593698,6.548786 -11.2593698,13.149177 0,4.991925 2.7634146,9.351502 6.8409078,11.6290703 1.916607,1.0705609 5.598132,-0.3326263 7.687844,-0.7539473 l 14.551809,-0.73052 c 23.063096,4.940002 37.003815,-0.830768 49.190098,-0.493054 1.885741,0.05226 4.463579,1.55248 6.473017,1.592417 2.165259,0.04303 2.834272,1.6067717 4.643517,0.6883866 4.32132,-2.1935316 7.28919,-6.7596836 7.28919,-11.9323526 0.002,-6.670575 -4.929394,-12.212014 -11.339876,-13.166714 z m 4.093378,20.227439 c -0.0547,-0.61411 -0.167203,-1.289115 -0.365369,-2.015725 -0.0062,-0.02167 -0.0072,-0.04128 -0.01445,-0.06193 -0.0021,-0.0062 -0.0062,-0.01238 -0.0083,-0.01961 -0.258029,-0.924777 -0.647138,-1.925931 -1.241637,-2.984884 -0.268351,-0.479934 -0.878332,-0.651266 -1.357235,-0.380851 -0.478902,0.270415 -0.652298,0.879364 -0.381883,1.358267 0.30241,0.537733 0.537733,1.054824 0.731771,1.55024 -0.881428,0.04025 -2.237631,-0.129014 -3.597962,-1.203449 -0.431425,-0.340599 -1.058952,-0.269382 -1.401615,0.164107 -0.340599,0.434521 -0.267319,1.061017 0.165139,1.402648 1.674094,1.319046 3.370895,1.634874 4.60634,1.634874 0.286929,0 0.547022,-0.01755 0.780281,-0.04335 0.127982,0.72661 0.153785,1.362395 0.133143,1.884646 -1.241637,0.61411 -2.634996,0.968127 -4.110924,0.968127 l -17.282808,0 c -2.000243,-4.202783 0.752414,-7.42815 1.235445,-7.946273 1.311821,-0.894846 2.33465,-1.872261 3.051972,-2.656671 0.393236,1.864005 0.04025,3.394635 0.01032,3.515393 -0.131079,0.535669 0.194038,1.074434 0.727643,1.209641 0.08051,0.02064 0.163074,0.02787 0.242547,0.02787 0.446907,0 0.853561,-0.302411 0.968126,-0.75551 0.01135,-0.04438 0.745189,-3.134541 -0.623399,-6.315527 -0.02683,-0.09496 -0.06502,-0.185782 -0.119725,-0.268351 -0.660555,-1.410905 -1.742215,-2.820777 -3.505071,-3.977781 -0.461357,-0.304475 -1.079595,-0.174428 -1.383038,0.285897 -0.303442,0.461356 -0.174428,1.080627 0.286929,1.383037 1.236477,0.812277 2.058042,1.77421 2.599904,2.751625 -0.880396,1.10643 -3.442112,3.950946 -7.211405,4.930426 -0.534637,0.140368 -0.854593,0.685326 -0.715257,1.21893 0.116629,0.451036 0.522251,0.747254 0.967094,0.747254 0.0836,0 0.168235,-0.01032 0.251836,-0.032 0.389109,-0.101148 0.760671,-0.221905 1.128105,-0.352984 -0.636817,1.639002 -0.969159,3.800256 -0.07431,6.235022 l -4.035579,1.119203 c -0.660555,-2.146805 -2.522495,-6.667867 -7.77907,-8.885888 -0.507802,-0.215712 -1.094044,0.02271 -1.308725,0.531541 -0.21468,0.508834 0.02271,1.096109 0.532573,1.309757 0.583146,0.245644 1.116751,0.508834 1.607007,0.782345 -0.729707,0.465485 -1.801045,1.006315 -3.108738,1.229252 -0.494384,-0.58005 -1.399551,-1.851619 -1.276729,-3.279037 0.109404,-1.270537 1.020764,-2.468825 2.71034,-3.556677 0.463421,-0.298282 0.596564,-0.916521 0.298282,-1.379941 -0.298282,-0.462389 -0.917552,-0.597596 -1.380973,-0.298282 -2.234534,1.440836 -3.451401,3.145894 -3.617572,5.063568 -0.116629,1.35001 0.323053,2.546234 0.842208,3.458626 -0.847369,-0.143464 -1.745311,-0.445875 -2.678345,-0.977415 -0.47787,-0.272479 -1.088884,-0.107341 -1.361363,0.37053 -0.273511,0.479934 -0.10734,1.088884 0.371562,1.361363 1.72054,0.983608 3.35335,1.343817 4.823085,1.343817 0.295186,0 0.58005,-0.01755 0.859754,-0.04438 0.01342,0 0.02477,0.0031 0.03922,0.0031 0.08979,0 0.178556,-0.01651 0.265254,-0.03922 2.30059,-0.296218 4.084089,-1.395423 4.994417,-2.075589 1.721572,1.361363 2.604032,3.944109 3.058164,5.084599 l -8.972277,2.0463814 -7.636632,-1.9480524 c -0.863882,-2.133387 -3.541121,-6.769292 -10.394381,-9.370228 -0.516059,-0.195071 -1.091981,0.06399 -1.288083,0.58005 -0.19507,0.515026 0.06399,1.093012 0.579018,1.288082 0.719386,0.272479 1.377877,0.554247 1.990955,0.840144 -1.180743,0.61411 -2.394513,1.687512 -2.62674,3.547388 -0.06812,0.547022 0.319957,1.047599 0.866979,1.114687 0.04232,0.0052 0.08463,0.0083 0.124886,0.0083 0.496449,0 0.92581,-0.369498 0.989801,-0.875236 0.217777,-1.746343 2.205635,-2.353228 2.995205,-2.527656 2.395545,1.495538 3.646471,3.99297 4.295673,5.152038 l -20.99843,-0.974026 c -0.03922,-1.227188 0.123854,-2.899218 1.031085,-4.32354 0.939227,-1.477993 2.528688,-2.443022 4.72297,-2.873415 0.540829,-0.107341 0.893813,-0.630624 0.787505,-1.172486 -0.106308,-0.541862 -0.629591,-0.894846 -1.171453,-0.788538 -0.246676,0.04851 -0.481999,0.108373 -0.717322,0.169268 0.741061,-1.489346 1.355171,-3.54842 0.889686,-5.873781 -0.107341,-0.539798 -0.633721,-0.89175 -1.17455,-0.784409 -0.54083,0.10734 -0.89175,0.63372 -0.783377,1.175581 0.716289,3.581448 -2.001276,6.533304 -2.034304,6.567364 -0.117661,0.124886 -0.193006,0.275575 -0.234291,0.429361 -0.792666,0.579018 -1.459414,1.270537 -1.979601,2.093134 -1.153907,1.823752 -1.376845,3.866312 -1.336592,5.381461 l -2.390384,0 c -3.764133,0 -7.007046,-2.248984 -8.4757492,-5.469191 0.6956472,-1.449093 2.2706582,-3.51952 5.7643762,-4.514482 0.530508,-0.150689 0.838079,-0.703904 0.68739,-1.232348 -0.150689,-0.531541 -0.702872,-0.838079 -1.23338,-0.68739 -2.991077,0.850465 -4.833406,2.372838 -5.9646072,3.846702 -0.056766,-0.412847 -0.095987,-0.832919 -0.095987,-1.260216 0,-5.041894 4.0882172,-9.206488 9.1239192,-9.310732 0.609981,1.45219 1.88155,3.744523 4.02629,4.414367 0.09908,0.02993 0.199199,0.04645 0.298282,0.04645 0.425232,0 0.818469,-0.274543 0.952644,-0.70184 0.164107,-0.527412 -0.129014,-1.087852 -0.655394,-1.251958 -1.40368,-0.43865 -2.397609,-2.284076 -2.879608,-3.51436 0.170299,-0.294154 0.274543,-0.630624 0.274543,-0.99393 l -10e-4,-0.05264 c 0,-4.698198 3.498878,-8.585153 8.024714,-9.217841 1.058952,2.352196 2.828002,7.145349 2.604032,12.530939 -0.02271,0.550118 0.40459,1.014571 0.955741,1.03831 0.01445,0 0.02787,0.0021 0.04232,0.0021 0.532572,0 0.974319,-0.420072 0.997025,-0.957805 0.12179,-2.920893 -0.285896,-5.647747 -0.865946,-7.963819 1.608039,-0.237387 4.351407,-1.051727 6.408417,-3.795096 0.330278,-0.440714 0.241516,-1.066177 -0.200231,-1.397487 -0.439682,-0.33131 -1.066177,-0.241515 -1.397487,0.199199 -1.77421,2.366645 -4.185236,2.925021 -5.360818,3.054036 -0.337502,-1.061017 -0.692551,-1.993019 -1.0187,-2.767107 0.436586,0.04128 0.872139,0.109404 1.302532,0.212616 1.06721,0.254933 2.140612,-0.400462 2.40277,-1.465607 0.718354,-2.928117 2.766075,-5.230772 5.407263,-6.347523 0.758607,0.205392 1.594622,0.567665 2.210796,1.209642 0.702872,0.731771 1.007347,1.708154 0.932002,2.983852 -0.03303,0.550118 0.387044,1.022828 0.938195,1.054824 0.01961,10e-4 0.03922,0.0021 0.05986,0.0021 0.524316,0 0.963998,-0.409751 0.994961,-0.940259 0.108372,-1.840266 -0.394269,-3.351286 -1.493474,-4.492808 -0.18991,-0.198166 -0.394269,-0.37053 -0.604821,-0.533604 0.199199,-0.01239 0.400462,-0.0258 0.602757,-0.0258 3.411148,0 6.481698,1.819623 8.131022,4.77664 0.202295,1.383037 1.243701,3.424565 4.291544,4.301865 0.09289,0.0258 0.185781,0.03922 0.278672,0.03922 0.433489,0 0.832919,-0.284865 0.958837,-0.722482 0.151721,-0.529477 -0.151721,-1.082692 -0.68223,-1.235445 -0.923745,-0.265254 -1.548176,-0.641977 -1.976505,-1.03831 0.400462,-0.188878 0.7359,-0.507802 0.940259,-0.920649 1.583269,-3.207821 4.787993,-5.20084 8.360152,-5.20084 2.713437,0 5.190519,1.1601 6.910027,3.059196 -0.355049,0.320989 -0.705969,0.743125 -0.975351,1.302532 -0.757575,1.566755 -0.602757,3.591769 0.460324,6.023438 0.164107,0.374659 0.531541,0.597596 0.91652,0.597596 0.133144,0 0.268351,-0.02683 0.39943,-0.0836 0.505738,-0.221906 0.7359,-0.810213 0.513994,-1.314918 -0.798858,-1.82788 -0.974318,-3.321354 -0.505737,-4.322508 0.10734,-0.225002 0.236355,-0.409751 0.372594,-0.561472 0.41904,0.737964 0.75035,1.539919 0.95987,2.398641 0.261125,1.070306 1.336592,1.726733 2.412058,1.466639 0.727643,-0.176492 1.473864,-0.267319 2.214924,-0.267319 1.941413,0 3.758972,0.609982 5.266896,1.64726 -0.02271,0.433489 -0.08567,0.923745 -0.210552,1.43774 -0.640945,0.12695 -2.265498,0.1414 -4.978935,-1.794853 -0.448971,-0.320988 -1.07237,-0.215712 -1.393358,0.232227 -0.320989,0.448971 -0.215713,1.07237 0.233258,1.393358 2.255177,1.608039 4.000488,2.124098 5.242125,2.206668 -0.271447,0.396333 -0.596564,0.779248 -1.010443,1.127072 -0.41904,0.35608 -0.471678,0.986704 -0.115597,1.407808 0.196102,0.233259 0.478902,0.352984 0.762734,0.352984 0.228098,0 0.455164,-0.07741 0.64301,-0.236355 1.249894,-1.055856 1.956894,-2.317103 2.358388,-3.527777 0.0289,-0.06502 0.05264,-0.134175 0.06606,-0.203327 0.07947,-0.262158 0.149657,-0.523284 0.202295,-0.776153 1.143586,1.333496 1.927995,2.991077 2.169511,4.835471 0.01755,0.124886 0.04438,0.246676 0.08257,0.363305 l 0,0.901039 c 0,1.102301 0.893814,1.997147 1.997147,1.997147 0.08051,0 0.157914,0.01032 0.23842,0.01239 -2.015726,1.943477 -3.643375,4.168722 -4.736388,5.845913 -0.08876,-0.439682 -0.191973,-0.886589 -0.310667,-1.351042 -0.137272,-0.534637 -0.680165,-0.853561 -1.217899,-0.715257 -0.534636,0.139336 -0.854593,0.684294 -0.714225,1.217899 0.873171,3.362638 0.780281,6.050272 -0.269383,7.775973 -0.881428,1.454253 -2.146804,1.769049 -2.219052,1.784531 -0.534637,0.114565 -0.879364,0.638881 -0.767896,1.177646 0.09908,0.471678 0.512963,0.795763 0.977416,0.795763 0.06399,0 0.134175,-0.0062 0.201263,-0.02064 0.08463,-0.01858 2.117905,-0.457228 3.475139,-2.638092 0.797827,-1.280858 1.195192,-2.867223 1.19416,-4.74258 0.565601,-1.025925 3.234656,-5.663229 6.919316,-8.722425 3.787871,1.182807 6.545689,4.72297 6.545689,8.895821 -0.0021,2.82697 -1.269504,5.354625 -3.257363,7.064844 z"
       style="fill:#ffffff" /><path
       inkscape:connector-curvature="0"
       id="path5013"
       d="m 70.288315,-36.037611 c -0.0072,0 -0.01548,0 -0.02167,0 -1.036246,0.02271 -1.956895,0.168235 -2.774332,0.40459 0.132111,-1.654484 -0.04645,-4.12847 -1.673062,-6.401192 -0.0072,-0.707001 0.07947,-2.712405 1.171453,-4.079961 0.344727,-0.430393 0.274543,-1.058952 -0.156882,-1.402648 -0.429361,-0.343695 -1.056888,-0.274543 -1.401615,0.156882 -0.847369,1.064113 -1.254023,2.331554 -1.443933,3.40702 -0.40459,-0.323053 -0.845304,-0.635784 -1.34072,-0.929938 -0.473742,-0.281768 -1.087852,-0.125918 -1.368588,0.347824 -0.280736,0.473742 -0.126951,1.08682 0.346791,1.368588 4.655882,2.767107 4.027323,7.195923 3.731105,8.475749 -3.735233,2.3202 -4.208975,6.818168 -4.213104,6.880095 -0.05264,0.547022 0.35092,1.032117 0.89691,1.084755 0.032,0.0031 0.06399,0.0052 0.09702,0.0052 0.506769,0 0.941291,-0.386012 0.993929,-0.902071 0.02374,-0.255965 0.698743,-6.275274 7.180441,-6.418738 0.552183,-0.01239 0.989801,-0.469614 0.975351,-1.019733 -0.01342,-0.543925 -0.45826,-0.976383 -0.99909,-0.976383 z"
       style="fill:#ffffff" /><path
       inkscape:connector-curvature="0"
       id="path5015"
       d="m 43.727804,-31.875081 c -0.549087,-0.02993 -1.019732,0.395301 -1.0476,0.946452 -0.08876,1.751503 -0.475806,2.049785 -0.470645,2.049785 -0.323053,0.04541 -1.368588,-0.763767 -2.180864,-1.806205 -1.243702,-3.610347 -3.884891,-5.143042 -4.030419,-5.224579 -0.480967,-0.269383 -1.089916,-0.09702 -1.359299,0.383948 -0.269383,0.480966 -0.09805,1.089916 0.383948,1.359298 0.03612,0.02064 3.649567,2.10552 3.649567,7.448792 0,0.551151 0.446907,0.99909 0.99909,0.99909 0.551151,0 0.998058,-0.447939 0.998058,-0.99909 0,-0.233258 -0.01858,-0.448971 -0.0289,-0.669844 0.494385,0.300346 1.029021,0.507802 1.565722,0.507802 0.194039,0 0.388077,-0.02683 0.581083,-0.0867 1.717443,-0.522251 1.844394,-3.033393 1.885678,-3.860119 0.0289,-0.552183 -0.395301,-1.020765 -0.945419,-1.048632 z"
       style="fill:#ffffff" /><path
       inkscape:connector-curvature="0"
       id="path5017"
       d="m 56.937876,-33.669933 c -1.360331,-0.177524 -2.253113,-2.058042 -2.495661,-2.803231 l -0.01548,-3.395667 c -0.0021,-0.550119 -0.448971,-0.993929 -0.998058,-0.993929 -10e-4,0 -0.0031,0 -0.0041,0 -0.551151,0.0021 -0.995994,0.452067 -0.99393,1.003218 l 0.05161,11.482307 c 0.0021,0.550119 0.448971,0.99393 0.998058,0.99393 0.001,0 0.0021,0 0.0041,0 0.551151,-0.0021 0.997026,-0.452068 0.992897,-1.004251 l -0.01961,-4.389596 c 0.585211,0.541862 1.319046,0.971223 2.220085,1.088884 0.04232,0.0062 0.0867,0.0083 0.129015,0.0083 0.494384,0 0.924777,-0.366401 0.9898,-0.870075 0.07534,-0.547022 -0.309635,-1.048631 -0.858721,-1.119847 z"
       style="fill:#ffffff" /><path
       style="fill:#ffffff"
       inkscape:connector-curvature="0"
       id="path5001"
       d="m 63.62092,-11.141958 c -3.261497,0.819441 -7.044455,1.6568632 -10.407846,1.5532559 -2.019918,-0.061652 -3.932803,-0.5317369 -5.743794,-0.9538739 -12.21113,-2.845353 -23.235482,-3.920816 -36.852591,-0.795465 l 0.875099,5.7266684 c 0.845985,0.018838 2.257958,0.3262352 2.322178,1.9454236 0.51975,13.0442702 3.915679,19.299253 16.274084,18.976442 15.293667,-0.399017 19.27014,-12.639259 20.106706,-17.2964592 0.448681,-2.4994241 1.73564,-2.7537334 3.174158,-2.7922651 2.548231,-0.068501 2.837647,1.7938655 3.283758,2.9215604 5.242882,13.2523419 8.393921,16.2672349 19.394298,17.2253899 16.722765,1.458212 14.796179,-10.9421512 17.058419,-18.1484385 0.43327,-1.3768667 0.908495,-2.0824253 2.421507,-2.1158195 l 0.715833,-5.727525 c -9.691157,-2.070438 -19.747935,-3.752133 -32.621809,-0.518894 z m -48.78886,3.4627165 c -1.208185,0 -2.187746,-0.2491718 -2.187746,-0.5565692 0,-0.3073977 0.979561,-0.5565693 2.187746,-0.5565693 1.208183,0 2.187745,0.250028 2.187745,0.5565693 0,0.3073974 -0.979562,0.5565692 -2.187745,0.5565692 z m 30.941825,8.8289009 c -2.34016,6.9057395 -6.00838,11.9174326 -15.430669,12.1700286 -9.332382,0 -12.044159,-1.700533 -13.283167,-12.56818972 0,-7.29105708 -0.477793,-11.55951528 13.362799,-11.53382728 9.332382,0.8956481 19.12115,0.8065976 15.351037,11.9319884 z M 89.919244,0.75235454 C 88.680236,11.619155 85.969315,13.320545 76.635221,13.320545 67.212931,13.067947 63.544712,8.0562552 61.204552,1.1505156 57.435294,-9.9757314 67.223207,-9.8866809 76.556445,-10.781473 90.396181,-10.807157 89.919244,-6.5387026 89.919244,0.75235454 Z M 92.265398,-7.121816 c -1.207328,0 -2.187746,-0.2500281 -2.187746,-0.5565693 0,-0.3073974 0.980418,-0.5565692 2.187746,-0.5565692 1.20733,0 2.187748,0.2491718 2.187748,0.5565692 0,0.3065412 -0.979562,0.5565693 -2.187748,0.5565693 z" /></g></svg>